<?xml version="1.0" standalone="no"?>
<!DOCTYPE svg PUBLIC "-//W3C//DTD SVG 20010904//EN"
 "http://www.w3.org/TR/2001/REC-SVG-20010904/DTD/svg10.dtd">
<svg version="1.0" xmlns="http://www.w3.org/2000/svg"
 width="1200.000000pt" height="1200.000000pt" viewBox="0 0 1200.000000 1200.000000"
 preserveAspectRatio="xMidYMid meet">
<metadata>
Created by potrace 1.11, written by Peter Selinger 2001-2013
</metadata>
<g transform="translate(0.000000,1200.000000) scale(0.100000,-0.100000)"
fill="#000000" stroke="none">
<path d="M5560 11990 c-379 -32 -688 -82 -1020 -165 -653 -163 -1267 -432
-1830 -801 -94 -62 -102 -69 -77 -72 20 -2 27 -8 25 -20 -2 -13 -16 -18 -63
-20 -58 -3 -61 -5 -209 -116 -1192 -896 -2023 -2237 -2290 -3696 -75 -407
-100 -741 -93 -1209 5 -347 15 -482 58 -776 151 -1043 585 -2038 1258 -2877
l86 -108 167 0 168 0 0 80 0 80 -35 0 c-23 0 -35 5 -35 14 0 8 -7 17 -15 20
-13 5 -15 26 -13 128 l3 123 33 3 c36 4 43 21 12 29 -11 3 -20 9 -20 14 0 5
-20 9 -45 9 l-45 0 0 195 c0 167 2 195 15 195 8 0 15 7 15 15 0 8 7 15 15 15
8 0 15 7 15 15 0 10 -10 15 -30 15 -23 0 -30 4 -30 20 0 16 7 20 35 20 28 0
35 -4 35 -20 0 -19 7 -20 205 -20 176 0 205 -2 205 -15 0 -8 7 -15 15 -15 8 0
15 -7 15 -15 0 -8 7 -15 15 -15 13 0 15 -28 15 -195 l0 -195 -45 0 c-25 0 -45
-4 -45 -9 0 -5 -9 -11 -20 -14 -31 -8 -24 -25 13 -29 l32 -3 3 -123 c2 -102 0
-123 -13 -128 -8 -3 -15 -12 -15 -20 0 -9 -12 -14 -35 -14 l-35 0 0 -80 0 -80
2090 0 2090 0 0 -95 c0 -78 -3 -95 -15 -95 -10 0 -15 -10 -15 -30 0 -28 -3
-30 -35 -30 -32 0 -35 2 -35 30 0 27 -3 30 -30 30 -27 0 -30 -3 -30 -30 0 -27
-3 -30 -30 -30 -27 0 -30 -3 -30 -30 0 -27 3 -30 30 -30 28 0 30 -3 30 -35 0
-33 -2 -35 -35 -35 -33 0 -35 2 -35 35 0 32 -2 35 -30 35 -27 0 -30 3 -30 30
0 27 3 30 30 30 27 0 30 3 30 30 0 27 -3 30 -30 30 -27 0 -30 -3 -30 -30 0
-27 -3 -30 -30 -30 -27 0 -30 3 -30 30 0 27 -3 30 -30 30 -27 0 -30 -3 -30
-30 0 -27 3 -30 30 -30 27 0 30 -3 30 -30 0 -27 -3 -30 -30 -30 -28 0 -30 -3
-30 -35 0 -33 -2 -35 -35 -35 -33 0 -35 2 -35 35 0 32 2 35 30 35 27 0 30 3
30 30 0 27 -3 30 -30 30 -27 0 -30 3 -30 30 0 27 -3 30 -30 30 -27 0 -30 -3
-30 -30 0 -28 -3 -30 -35 -30 -32 0 -35 2 -35 30 0 25 -4 30 -25 30 -21 0 -25
-5 -25 -30 0 -28 -3 -30 -35 -30 -32 0 -35 2 -35 30 0 27 -3 30 -30 30 -27 0
-30 -3 -30 -30 0 -27 3 -30 30 -30 27 0 30 -3 30 -30 0 -28 3 -30 35 -30 33 0
35 -2 35 -35 0 -33 -2 -35 -34 -35 -32 0 -35 3 -38 33 -3 28 -7 32 -35 35 -29
3 -33 7 -33 33 0 27 -3 30 -27 27 -22 -2 -29 -9 -31 -31 -3 -23 -8 -27 -33
-27 -27 0 -29 -3 -29 -35 0 -33 -2 -35 -35 -35 -33 0 -35 2 -35 35 0 32 2 35
30 35 27 0 30 3 30 30 0 27 -3 30 -30 30 -27 0 -30 3 -30 30 0 27 -3 30 -30
30 -27 0 -30 -3 -30 -30 0 -27 -3 -30 -30 -30 -27 0 -30 3 -30 30 0 27 -3 30
-30 30 -27 0 -30 -3 -30 -29 0 -26 -4 -30 -32 -33 -28 -2 -34 -8 -36 -30 -3
-24 -8 -28 -33 -28 -26 0 -29 3 -29 30 0 27 3 30 30 30 27 0 30 3 30 30 0 27
-3 30 -30 30 -27 0 -30 -3 -30 -30 0 -27 -3 -30 -30 -30 -27 0 -30 -3 -30 -30
0 -28 -3 -30 -35 -30 -32 0 -35 2 -35 30 0 27 3 30 30 30 27 0 30 3 30 30 0
27 -3 30 -30 30 -27 0 -30 -3 -30 -30 0 -27 -3 -30 -30 -30 -27 0 -30 3 -30
30 0 27 -3 30 -30 30 -27 0 -30 -3 -30 -30 0 -28 -3 -30 -35 -30 -32 0 -35 2
-35 30 0 27 -3 30 -30 30 -27 0 -30 -3 -30 -30 0 -27 -3 -30 -30 -30 -27 0
-30 3 -30 30 0 27 -3 30 -30 30 -27 0 -30 -3 -30 -30 0 -27 3 -30 30 -30 27 0
30 -3 30 -30 0 -27 3 -30 30 -30 28 0 30 -3 30 -35 0 -32 -2 -35 -29 -35 -26
0 -30 4 -33 33 -3 28 -7 32 -35 35 -29 3 -33 7 -33 33 0 26 -3 29 -30 29 -27
0 -30 3 -30 30 0 27 -3 30 -30 30 -27 0 -30 -3 -30 -30 0 -27 3 -30 30 -30 27
0 30 -3 30 -30 0 -27 -3 -30 -30 -30 -28 0 -30 -3 -30 -35 0 -33 -2 -35 -35
-35 -33 0 -35 2 -35 35 0 32 2 35 30 35 27 0 30 3 30 30 0 27 -3 30 -30 30
-27 0 -30 3 -30 30 0 27 -3 30 -30 30 -27 0 -30 -3 -30 -30 0 -25 -4 -30 -25
-30 -21 0 -25 5 -25 30 0 27 -3 30 -30 30 -27 0 -30 -3 -30 -30 0 -27 -3 -30
-30 -30 -27 0 -30 -3 -30 -30 0 -27 3 -30 30 -30 28 0 30 -3 30 -35 0 -33 -2
-35 -35 -35 -33 0 -35 2 -35 35 0 32 -2 35 -30 35 -27 0 -30 3 -30 30 0 27 3
30 30 30 27 0 30 3 30 30 0 27 -3 30 -30 30 -27 0 -30 -3 -30 -30 0 -27 -3
-30 -30 -30 -27 0 -30 3 -30 30 0 27 -3 30 -30 30 -27 0 -30 -3 -30 -30 0 -27
3 -30 30 -30 27 0 30 -3 30 -30 0 -27 -3 -30 -30 -30 -28 0 -30 -3 -30 -35 0
-33 -2 -35 -35 -35 -33 0 -35 2 -35 35 0 32 2 35 30 35 27 0 30 3 30 30 0 27
-3 30 -30 30 -27 0 -30 3 -30 30 0 27 -3 30 -30 30 -27 0 -30 -3 -30 -30 0
-28 -3 -30 -35 -30 -32 0 -35 2 -35 30 0 25 -4 30 -25 30 -21 0 -25 -5 -25
-30 0 -28 -3 -30 -35 -30 -32 0 -35 2 -35 30 0 27 -3 30 -30 30 -27 0 -30 -3
-30 -30 0 -27 3 -30 30 -30 27 0 30 -3 30 -30 0 -28 3 -30 35 -30 33 0 35 -2
35 -35 0 -33 -2 -35 -34 -35 -32 0 -35 3 -38 33 -3 28 -7 32 -35 35 -29 3 -33
7 -33 33 0 27 -3 30 -27 27 -22 -2 -29 -9 -31 -30 -3 -24 -8 -28 -33 -28 -27
0 -29 -3 -29 -35 0 -33 -2 -35 -35 -35 -33 0 -35 2 -35 35 0 32 2 35 30 35 27
0 30 3 30 30 0 27 -3 30 -30 30 -27 0 -30 3 -30 30 0 27 -3 30 -30 30 -27 0
-30 -3 -30 -30 0 -27 -3 -30 -30 -30 -27 0 -30 3 -30 30 0 27 -3 30 -30 30
-27 0 -30 -3 -30 -29 0 -26 -4 -30 -32 -33 -28 -2 -34 -8 -36 -30 -3 -24 -8
-28 -33 -28 -26 0 -29 3 -29 30 0 27 3 30 30 30 27 0 30 3 30 30 0 27 -3 30
-30 30 -27 0 -30 -3 -30 -30 0 -27 -3 -30 -30 -30 -27 0 -30 -3 -30 -30 0 -28
-3 -30 -35 -30 -32 0 -35 2 -35 30 0 27 3 30 30 30 27 0 30 3 30 30 0 27 -3
30 -30 30 -27 0 -30 -3 -30 -30 0 -27 -3 -30 -30 -30 -27 0 -30 3 -30 30 0 27
-3 30 -30 30 -27 0 -30 -3 -30 -30 0 -28 -3 -30 -35 -30 -32 0 -35 2 -35 30 0
27 -3 30 -30 30 -27 0 -30 -3 -30 -30 0 -27 -3 -30 -30 -30 -27 0 -30 3 -30
30 0 27 -3 30 -30 30 -27 0 -30 -3 -30 -30 0 -27 3 -30 30 -30 27 0 30 -3 30
-30 0 -27 3 -30 30 -30 28 0 30 -3 30 -35 0 -32 -2 -35 -29 -35 -26 0 -30 4
-33 33 -3 28 -7 32 -35 35 -29 3 -33 7 -33 33 0 26 -3 29 -30 29 -27 0 -30 3
-30 30 0 27 -3 30 -30 30 -27 0 -30 -3 -30 -30 0 -27 3 -30 30 -30 27 0 30 -3
30 -30 0 -27 -3 -30 -30 -30 -28 0 -30 -3 -30 -35 0 -33 -2 -35 -35 -35 -33 0
-35 2 -35 35 0 32 2 35 30 35 27 0 30 3 30 30 0 27 -3 30 -30 30 -27 0 -30 3
-30 30 0 29 -2 30 -45 30 -43 0 -45 -1 -45 -30 0 -28 -3 -30 -35 -30 -32 0
-35 2 -35 30 0 27 -3 30 -30 30 -27 0 -30 -3 -30 -30 0 -27 -3 -30 -30 -30
-27 0 -30 -3 -30 -30 0 -27 3 -30 30 -30 28 0 30 -3 30 -35 0 -33 -2 -35 -35
-35 -33 0 -35 2 -35 35 0 32 -2 35 -30 35 -27 0 -30 3 -30 30 0 27 3 30 30 30
27 0 30 3 30 30 0 27 -3 30 -30 30 -27 0 -30 -3 -30 -30 0 -27 -3 -30 -30 -30
-27 0 -30 3 -30 30 0 27 -3 30 -30 30 -27 0 -30 -3 -30 -30 0 -27 3 -30 30
-30 27 0 30 -3 30 -30 0 -21 -5 -30 -17 -30 -13 0 -10 -7 12 -30 16 -16 37
-30 47 -30 11 0 18 -7 18 -19 0 -35 350 -345 612 -542 313 -235 596 -409 963
-589 653 -321 1290 -504 2050 -587 230 -25 960 -25 1190 0 597 65 1132 197
1659 408 192 77 589 273 771 379 899 528 1637 1266 2165 2165 106 182 302 579
379 771 211 527 343 1062 408 1659 14 128 17 248 17 595 0 347 -3 467 -17 595
-66 599 -195 1124 -409 1660 -76 191 -272 589 -378 770 -405 688 -950 1301
-1575 1771 -139 104 -155 113 -200 116 -37 2 -51 7 -53 20 -2 9 4 18 15 20 38
8 -372 259 -667 407 -667 337 -1319 528 -2110 617 -168 19 -868 28 -1040 14z
m-2522 -1057 c-3 -16 -16 -18 -113 -18 -97 0 -110 2 -113 18 -3 15 7 17 113
17 106 0 116 -2 113 -17z m380 0 c-3 -16 -16 -18 -113 -18 -97 0 -110 2 -113
18 -3 15 7 17 113 17 106 0 116 -2 113 -17z m380 0 c-3 -16 -16 -18 -113 -18
-97 0 -110 2 -113 18 -3 15 7 17 113 17 106 0 116 -2 113 -17z m380 0 c-3 -16
-18 -18 -116 -21 -107 -3 -112 -2 -112 18 0 19 6 20 116 20 105 0 115 -2 112
-17z m380 0 c-3 -16 -18 -18 -116 -21 -107 -3 -112 -2 -112 18 0 19 6 20 116
20 105 0 115 -2 112 -17z m380 0 c-3 -16 -16 -18 -113 -18 -97 0 -110 2 -113
18 -3 15 7 17 113 17 106 0 116 -2 113 -17z m392 -3 c0 -20 -5 -21 -112 -18
-98 3 -113 5 -116 21 -3 15 7 17 112 17 110 0 116 -1 116 -20z m378 3 c-3 -16
-17 -18 -107 -21 -57 -1 -109 2 -114 7 -23 23 8 31 114 31 100 0 110 -2 107
-17z m380 0 c-3 -16 -16 -18 -113 -18 -97 0 -110 2 -113 18 -3 15 7 17 113 17
106 0 116 -2 113 -17z m380 0 c-3 -16 -16 -18 -113 -18 -97 0 -110 2 -113 18
-3 15 7 17 113 17 106 0 116 -2 113 -17z m410 0 c-3 -16 -17 -18 -128 -18
-111 0 -125 2 -128 18 -3 15 8 17 128 17 120 0 131 -2 128 -17z m380 0 c-3
-16 -16 -18 -113 -18 -97 0 -110 2 -113 18 -3 15 7 17 113 17 106 0 116 -2
113 -17z m380 0 c-3 -16 -16 -18 -113 -18 -97 0 -110 2 -113 18 -3 15 7 17
113 17 106 0 116 -2 113 -17z m380 0 c-3 -16 -16 -18 -113 -18 -97 0 -110 2
-113 18 -3 15 7 17 113 17 106 0 116 -2 113 -17z m380 0 c-3 -16 -18 -18 -116
-21 -107 -3 -112 -2 -112 18 0 19 6 20 116 20 105 0 115 -2 112 -17z m380 0
c-3 -16 -18 -18 -116 -21 -107 -3 -112 -2 -112 18 0 19 6 20 116 20 105 0 115
-2 112 -17z m380 0 c-3 -16 -16 -18 -113 -18 -97 0 -110 2 -113 18 -3 15 7 17
113 17 106 0 116 -2 113 -17z m-5468 -573 l0 -190 60 0 60 0 0 190 0 190 65 0
65 0 0 -160 0 -160 -30 0 c-27 0 -30 -3 -30 -30 0 -28 -3 -30 -35 -30 -32 0
-35 -2 -35 -30 l0 -30 -125 0 -125 0 0 220 0 220 65 0 65 0 0 -190z m560 155
c0 -32 -2 -35 -30 -35 l-30 0 0 -155 0 -155 30 0 c27 0 30 -3 30 -30 l0 -30
-125 0 -125 0 0 30 c0 27 3 30 30 30 l30 0 0 155 0 155 -30 0 c-28 0 -30 3
-30 35 l0 35 125 0 125 0 0 -35z m250 5 c0 -27 3 -30 30 -30 28 0 30 -3 30
-35 0 -32 2 -35 30 -35 27 0 30 -3 30 -30 0 -27 3 -30 30 -30 l30 0 0 95 0 95
35 0 35 0 0 -220 0 -220 -35 0 c-32 0 -35 2 -35 30 0 27 -3 30 -30 30 -27 0
-30 3 -30 30 0 27 -3 30 -30 30 -28 0 -30 3 -30 35 0 32 -2 35 -30 35 -27 0
-30 3 -30 30 0 27 -3 30 -30 30 l-30 0 0 -125 0 -125 -35 0 -35 0 0 220 0 220
65 0 65 0 0 -30z m690 0 c0 -27 3 -30 30 -30 28 0 30 -3 30 -35 0 -33 -2 -35
-35 -35 -32 0 -35 2 -35 30 l0 30 -90 0 -90 0 0 -155 0 -155 89 0 90 0 3 33
c3 28 7 32 36 35 31 3 32 2 32 -32 0 -33 -2 -36 -30 -36 -27 0 -30 -3 -30 -30
l0 -30 -130 0 -130 0 0 30 c0 27 -3 30 -30 30 l-30 0 0 160 0 160 30 0 c27 0
30 3 30 30 l0 30 130 0 130 0 0 -30z m560 -5 l0 -35 -125 0 -125 0 0 -60 0
-60 95 0 95 0 0 -30 0 -30 -95 0 -95 0 0 -65 0 -65 125 0 125 0 0 -30 0 -30
-190 0 -190 0 0 220 0 220 190 0 190 0 0 -35z m250 5 c0 -27 3 -30 30 -30 28
0 30 -3 30 -35 0 -32 2 -35 30 -35 27 0 30 -3 30 -30 0 -27 3 -30 30 -30 l30
0 0 95 0 95 35 0 35 0 0 -220 0 -220 -35 0 c-32 0 -35 2 -35 30 0 27 -3 30
-30 30 -27 0 -30 3 -30 30 0 27 -3 30 -30 30 -28 0 -30 3 -30 35 0 32 -2 35
-30 35 -27 0 -30 3 -30 30 0 27 -3 30 -30 30 l-30 0 0 -125 0 -125 -35 0 -35
0 0 220 0 220 65 0 65 0 0 -30z m750 -5 l0 -35 -65 0 -65 0 0 -185 0 -185 -60
0 -60 0 0 185 0 185 -65 0 -65 0 0 35 0 35 190 0 190 0 0 -35z m750 0 l0 -35
-125 0 -125 0 0 -60 0 -60 95 0 95 0 0 -30 0 -30 -95 0 -95 0 0 -65 0 -65 125
0 125 0 0 -30 0 -30 -190 0 -190 0 0 220 0 220 190 0 190 0 0 -35z m250 -60
l0 -95 60 0 60 0 0 95 0 95 65 0 65 0 0 -95 0 -95 -30 0 c-27 0 -30 -3 -30
-30 0 -27 3 -30 30 -30 l30 0 0 -95 0 -95 -65 0 -65 0 0 95 0 95 -60 0 -60 0
0 -95 0 -95 -65 0 -65 0 0 95 0 95 30 0 c27 0 30 3 30 30 0 27 -3 30 -30 30
l-30 0 0 95 0 95 65 0 65 0 0 -95z m750 60 l0 -35 -125 0 -125 0 0 -60 0 -60
95 0 95 0 0 -30 0 -30 -95 0 -95 0 0 -65 0 -65 125 0 125 0 0 -30 0 -30 -190
0 -190 0 0 220 0 220 190 0 190 0 0 -35z m-1500 -340 l0 -65 -65 0 -65 0 0 65
0 65 65 0 65 0 0 -65z m-4865 -515 c11 -12 18 -35 18 -60 0 -54 -25 -80 -74
-80 -29 0 -42 6 -58 26 -45 57 -11 134 58 134 25 0 44 -7 56 -20z m793 -82
c26 -26 12 -39 -17 -17 -29 21 -31 21 -55 5 -35 -22 -37 -87 -4 -110 29 -21
34 -20 59 5 26 26 44 20 24 -9 -22 -31 -87 -31 -109 0 -23 32 -20 94 4 118 22
22 79 27 98 8z m72 -23 c0 -34 1 -35 40 -35 39 0 40 1 40 35 0 19 5 35 10 35
6 0 10 -33 10 -80 0 -47 -4 -80 -10 -80 -5 0 -10 18 -10 40 l0 40 -40 0 -40 0
0 -40 c0 -22 -4 -40 -10 -40 -6 0 -10 33 -10 80 0 47 4 80 10 80 6 0 10 -16
10 -35z m169 -54 c8 -5 12 -18 8 -30 -3 -12 -1 -24 4 -27 16 -10 9 -43 -11
-54 -14 -8 -26 -8 -40 0 -21 11 -27 30 -10 30 6 0 10 -4 10 -10 0 -5 9 -10 20
-10 13 0 20 7 20 20 0 11 -7 20 -15 20 -8 0 -15 4 -15 9 0 5 7 11 15 15 29 11
16 29 -16 22 -27 -5 -30 -4 -19 9 14 17 29 19 49 6z m-1058 -143 l-2 -133 144
-83 c78 -45 148 -82 154 -82 6 0 67 18 134 40 68 21 125 37 128 35 7 -8 1 -11
-132 -55 l-127 -42 2 -181 3 -180 115 -39 c147 -49 144 -47 137 -54 -3 -3 -64
13 -135 36 l-130 42 -106 -62 c-58 -34 -111 -60 -117 -58 -5 2 40 33 101 68
l111 65 0 184 0 184 -153 89 c-84 48 -156 88 -160 88 -3 0 -50 -25 -102 -55
-106 -61 -133 -74 -123 -58 4 6 47 34 97 62 l90 52 0 135 c0 83 4 134 10 134
6 0 10 -49 10 -128 0 -121 1 -128 20 -128 19 0 20 7 20 135 0 74 3 132 6 128
3 -3 5 -66 5 -139z m717 -15 c-20 -67 -38 -102 -38 -72 0 25 41 139 50 139 4
0 -1 -30 -12 -67z m922 -28 c0 -32 -2 -35 -30 -35 l-30 0 0 -155 0 -155 30 0
c27 0 30 -3 30 -30 l0 -30 -125 0 -125 0 0 30 c0 27 3 30 30 30 l30 0 0 155 0
155 -30 0 c-28 0 -30 3 -30 35 l0 35 125 0 125 0 0 -35z m440 5 c0 -27 3 -30
30 -30 28 0 30 -3 30 -35 0 -33 -2 -35 -35 -35 -32 0 -35 2 -35 30 l0 30 -90
0 -90 0 0 -60 0 -60 95 0 95 0 0 -30 c0 -27 3 -30 30 -30 l30 0 0 -65 0 -65
-30 0 c-27 0 -30 -3 -30 -30 l0 -30 -130 0 -130 0 0 30 c0 27 -3 30 -30 30
-28 0 -30 3 -30 36 0 34 1 35 33 32 28 -3 32 -7 35 -35 l3 -33 90 0 89 0 0 65
0 65 -95 0 -95 0 0 30 c0 27 -3 30 -30 30 l-30 0 0 65 0 65 30 0 c27 0 30 3
30 30 l0 30 130 0 130 0 0 -30z m500 -140 l0 -170 125 0 125 0 0 -50 0 -50
-190 0 -190 0 0 220 0 220 65 0 65 0 0 -170z m690 140 c0 -27 3 -30 30 -30
l30 0 0 -160 0 -160 -30 0 c-27 0 -30 -3 -30 -30 l0 -30 -130 0 -130 0 0 30
c0 27 -3 30 -30 30 l-30 0 0 160 0 160 30 0 c27 0 30 3 30 30 l0 30 130 0 130
0 0 -30z m500 0 c0 -27 3 -30 30 -30 l30 0 0 -190 0 -190 -65 0 -65 0 0 95 0
95 -60 0 -60 0 0 -95 0 -95 -65 0 -65 0 0 190 0 190 30 0 c27 0 30 3 30 30 l0
30 130 0 130 0 0 -30z m500 0 c0 -27 3 -30 30 -30 l30 0 0 -160 0 -160 -30 0
c-27 0 -30 -3 -30 -30 l0 -30 -160 0 -160 0 0 220 0 220 160 0 160 0 0 -30z
m370 -5 c0 -32 -2 -35 -30 -35 l-30 0 0 -155 0 -155 30 0 c27 0 30 -3 30 -30
l0 -30 -125 0 -125 0 0 30 c0 27 3 30 30 30 l30 0 0 155 0 155 -30 0 c-28 0
-30 3 -30 35 l0 35 125 0 125 0 0 -35z m250 5 c0 -27 3 -30 30 -30 28 0 30 -3
30 -35 0 -32 2 -35 30 -35 27 0 30 -3 30 -30 0 -27 3 -30 30 -30 l30 0 0 95 0
95 35 0 35 0 0 -220 0 -220 -35 0 c-32 0 -35 2 -35 30 0 27 -3 30 -30 30 -27
0 -30 3 -30 30 0 27 -3 30 -30 30 -28 0 -30 3 -30 35 0 32 -2 35 -30 35 -27 0
-30 3 -30 30 0 27 -3 30 -30 30 l-30 0 0 -125 0 -125 -35 0 -35 0 0 220 0 220
65 0 65 0 0 -30z m690 0 c0 -27 3 -30 30 -30 28 0 30 -3 30 -35 0 -33 -2 -35
-35 -35 -32 0 -35 2 -35 30 l0 30 -90 0 -90 0 0 -155 0 -155 60 0 60 0 0 65 0
65 -30 0 c-27 0 -30 3 -30 30 l0 30 95 0 95 0 0 -95 0 -95 -30 0 c-27 0 -30
-3 -30 -30 l0 -30 -130 0 -130 0 0 30 c0 27 -3 30 -30 30 l-30 0 0 160 0 160
30 0 c27 0 30 3 30 30 l0 30 130 0 130 0 0 -30z m-6560 -51 c0 -27 2 -29 40
-29 39 0 40 1 40 35 0 19 5 35 10 35 6 0 10 -35 10 -86 0 -54 -4 -83 -10 -79
-5 3 -10 22 -10 41 0 33 -1 34 -39 34 -39 0 -40 -1 -43 -37 -5 -64 -23 -42
-26 31 -2 38 -1 75 2 83 9 23 26 4 26 -28z m321 22 c13 -11 21 -23 17 -27 -5
-4 -17 1 -28 11 -16 15 -26 17 -48 9 -24 -9 -27 -14 -27 -59 0 -45 2 -50 29
-60 24 -8 31 -6 47 14 14 17 23 21 30 14 7 -7 2 -17 -17 -32 -48 -37 -95 -23
-114 35 -27 80 50 145 111 95z m1306 -118 l38 -57 3 57 c5 86 22 68 22 -23 0
-44 -4 -80 -9 -80 -4 0 -27 28 -50 63 l-41 62 0 -62 c0 -35 -4 -63 -10 -63 -6
0 -10 33 -10 80 0 46 4 80 10 80 5 0 27 -26 47 -57z m-1450 35 c12 -20 13 -81
1 -95 -14 -17 -43 -16 -58 2 -15 18 1 20 18 3 10 -9 16 -9 28 4 18 18 11 38
-14 38 -13 0 -13 2 4 14 15 12 16 17 7 27 -10 10 -15 9 -28 -1 -14 -12 -22 0
-8 13 11 11 41 8 50 -5z m320 -80 c20 -12 32 -23 26 -25 -14 -5 -133 65 -133
78 0 6 16 1 35 -10 19 -12 52 -31 72 -43z m125 -70 l43 -63 3 63 c4 90 22 76
22 -18 0 -99 -12 -103 -66 -22 l-39 57 -3 -57 c-5 -87 -22 -69 -22 22 0 45 4
80 10 80 5 0 29 -28 52 -62z m1168 -101 l71 -98 -76 -105 c-71 -97 -94 -123
-82 -90 3 7 35 54 72 104 l66 91 -70 96 c-39 52 -71 98 -71 101 0 17 26 -11
90 -99z m5080 18 l0 -65 -65 0 -65 0 0 65 0 65 65 0 65 0 0 -65z m440 0 l0
-65 -65 0 -65 0 0 65 0 65 65 0 65 0 0 -65z m440 0 l0 -65 -65 0 -65 0 0 65 0
65 65 0 65 0 0 -65z m-6410 -115 c0 -93 -4 -150 -10 -150 -6 0 -10 57 -10 150
0 93 4 150 10 150 6 0 10 -57 10 -150z m-693 -194 c35 -14 204 -118 199 -123
-3 -3 -46 17 -96 46 -49 28 -94 51 -99 51 -6 0 -63 -31 -128 -69 -65 -38 -120
-67 -123 -64 -7 7 22 26 133 89 88 50 97 58 84 71 -13 13 -27 8 -123 -47 -60
-35 -112 -65 -116 -67 -5 -2 -8 0 -8 5 0 5 54 40 120 78 l120 69 0 111 c0 159
14 151 18 -9 2 -113 5 -136 19 -141z m1122 162 c-13 -18 -41 -58 -63 -88 -22
-30 -42 -57 -43 -59 -2 -2 -6 -2 -9 2 -8 7 115 177 128 177 5 0 -1 -15 -13
-32z m6731 -53 c0 -11 -12 -15 -46 -15 -59 0 -55 -24 4 -28 23 -2 42 -7 42
-12 0 -5 -19 -10 -42 -12 -57 -4 -62 -26 -7 -30 67 -5 62 -28 -5 -28 l-56 0 0
70 0 70 55 0 c42 0 55 -3 55 -15z m50 -15 c0 -16 -4 -30 -10 -30 -5 0 -10 14
-10 30 0 17 5 30 10 30 6 0 10 -13 10 -30z m88 5 c-2 -14 -7 -26 -13 -26 -5 0
-11 12 -13 26 -2 18 1 25 13 25 12 0 15 -7 13 -25z m137 10 c0 -5 -19 -11 -42
-13 -43 -3 -43 -3 -43 -42 0 -38 0 -39 42 -42 66 -5 61 -28 -6 -28 l-56 0 0
71 0 70 53 -3 c28 -2 52 -7 52 -13z m135 0 c0 -11 -11 -15 -40 -15 -29 0 -40
-4 -40 -15 0 -11 11 -15 40 -15 22 0 40 -4 40 -10 0 -5 -18 -10 -40 -10 -29 0
-40 -4 -40 -15 0 -11 11 -15 40 -15 29 0 40 -4 40 -15 0 -11 -12 -15 -50 -15
l-50 0 0 70 0 70 50 0 c38 0 50 -4 50 -15z m60 -39 c0 -52 1 -55 27 -58 45 -5
40 -28 -6 -28 l-41 0 0 70 c0 40 4 70 10 70 6 0 10 -24 10 -54z m110 0 c0 -52
1 -55 27 -58 45 -5 40 -28 -6 -28 l-41 0 0 70 c0 40 4 70 10 70 6 0 10 -24 10
-54z m198 37 c2 -9 -10 -13 -42 -13 -34 0 -46 -4 -46 -15 0 -11 12 -15 45 -15
57 0 59 -18 3 -22 -57 -4 -62 -26 -7 -30 67 -5 62 -28 -5 -28 l-56 0 0 71 0
70 52 -3 c30 -2 53 -8 56 -15z m132 -53 c0 -40 -4 -70 -10 -70 -5 0 -10 25
-10 55 0 54 0 55 -30 55 -30 0 -30 -1 -30 -55 0 -30 -4 -55 -10 -55 -6 0 -10
30 -10 70 l0 70 50 0 50 0 0 -70z m115 60 c3 -6 -1 -13 -9 -16 -12 -5 -16 -20
-16 -60 0 -41 -4 -54 -15 -54 -12 0 -15 13 -15 55 0 30 -4 55 -10 55 -5 0 -10
7 -10 15 0 17 65 22 75 5z m305 -60 l0 -70 -56 0 c-67 0 -72 23 -6 28 29 2 42
8 42 18 0 10 -13 14 -46 14 -27 0 -43 4 -39 10 3 6 24 10 46 10 28 0 39 4 39
15 0 11 -11 15 -39 15 -38 0 -57 10 -44 24 3 3 28 6 55 6 l48 0 0 -70z m-159
19 c20 -20 20 -23 5 -31 -9 -5 -14 -13 -11 -19 4 -5 -1 -9 -9 -9 -9 0 -16 7
-16 15 0 8 -7 15 -15 15 -8 0 -15 5 -15 10 0 6 7 10 15 10 8 0 15 7 15 15 0
20 6 19 31 -6z m-1061 -19 c0 -5 -11 -10 -25 -10 -14 0 -25 5 -25 10 0 6 11
10 25 10 14 0 25 -4 25 -10z m-60 -45 c0 -14 -4 -25 -10 -25 -5 0 -10 11 -10
25 0 14 5 25 10 25 6 0 10 -11 10 -25z m90 0 c0 -16 -6 -25 -15 -25 -9 0 -15
9 -15 25 0 16 6 25 15 25 9 0 15 -9 15 -25z m-7014 -105 c22 -33 41 -60 44
-60 3 0 3 27 2 60 -3 39 0 60 7 60 7 0 11 -29 11 -80 0 -46 -4 -80 -10 -80 -5
0 -27 26 -47 57 l-38 57 -3 -57 c-5 -86 -22 -68 -22 23 0 44 4 80 9 80 5 0 26
-27 47 -60z m-1291 -16 c19 -8 45 -55 45 -84 0 -29 -53 -80 -82 -80 -48 1 -84
52 -74 106 10 51 60 77 111 58z m617 -67 l33 -52 3 63 c4 93 22 75 22 -23 0
-47 -4 -85 -9 -85 -5 0 -26 27 -47 60 -22 33 -41 60 -44 60 -3 0 -5 -25 -5
-55 0 -80 -19 -73 -23 9 -5 116 8 120 70 23z m8 -187 c0 -53 -4 -90 -10 -90
-6 0 -10 37 -10 90 0 53 4 90 10 90 6 0 10 -37 10 -90z m6050 -245 l0 -135
-70 0 -70 0 0 135 0 135 70 0 70 0 0 -135z m-6007 107 c25 -27 9 -34 -23 -10
-22 16 -32 18 -49 9 -26 -14 -37 -55 -25 -90 13 -35 65 -42 87 -11 10 14 17
18 22 10 12 -19 -26 -50 -62 -50 -46 0 -73 29 -73 80 0 27 7 47 20 60 26 26
81 26 103 2z m67 -12 c0 -28 2 -30 40 -30 38 0 40 2 40 30 0 20 5 30 15 30 12
0 15 -15 14 -80 -1 -62 -4 -80 -15 -80 -10 0 -14 12 -14 40 l0 40 -40 0 -40 0
0 -40 c0 -22 -4 -40 -10 -40 -6 0 -10 33 -10 80 0 47 4 80 10 80 6 0 10 -13
10 -30z m6120 -130 l0 -100 -75 0 -75 0 0 100 0 100 75 0 75 0 0 -100z m-5940
65 c10 -12 10 -19 2 -27 -8 -8 -8 -15 0 -28 6 -10 8 -25 5 -34 -8 -21 -63 -22
-71 -1 -7 18 -2 19 24 3 17 -11 22 -10 30 2 7 11 5 19 -9 31 -17 14 -17 16 -2
26 12 9 13 14 4 24 -10 10 -15 10 -28 -1 -8 -7 -15 -8 -15 -3 0 26 41 31 60 8z
m5590 -95 l0 -70 -70 0 -70 0 0 70 0 70 70 0 70 0 0 -70z m1867 33 l22 -14
-21 -35 c-11 -19 -24 -37 -29 -40 -9 -5 -79 32 -79 42 0 3 9 23 20 45 22 42
24 42 87 2z m246 -254 c144 -84 263 -153 265 -154 2 -2 -1 -12 -7 -23 -9 -16
-6 -23 12 -35 19 -12 20 -16 8 -31 -12 -15 -12 -19 7 -32 20 -14 18 -18 -111
-243 -73 -125 -139 -238 -147 -251 l-16 -22 -59 35 c-57 34 -60 34 -73 16 -11
-15 -17 -17 -33 -8 -12 6 -22 9 -23 7 -1 -2 -12 -19 -24 -40 l-22 -36 37 -23
c21 -12 40 -24 42 -25 3 -2 -173 -318 -186 -334 -2 -2 -13 1 -23 8 -16 10 -21
8 -34 -9 -12 -18 -17 -19 -34 -8 -17 10 -19 17 -10 33 8 15 7 22 -8 33 -9 7
-19 12 -20 10 -1 -1 -28 -47 -59 -102 -32 -55 -59 -101 -61 -103 -3 -5 -84 42
-84 48 0 3 27 51 59 107 59 102 60 103 38 114 -12 7 -40 22 -62 35 l-40 23
-53 -92 c-28 -51 -56 -98 -61 -105 -7 -11 -17 -9 -50 12 l-42 27 28 47 c15 26
42 72 60 102 31 51 32 56 16 68 -15 11 -21 10 -35 -8 -14 -18 -20 -19 -37 -8
-16 10 -18 16 -9 32 8 15 7 22 -8 33 -19 14 -18 15 2 51 92 165 169 292 177
292 5 0 25 -9 43 -21 l33 -20 25 38 c24 38 24 38 4 54 -16 13 -18 20 -10 36
10 18 5 23 -49 53 -32 19 -59 37 -59 41 0 5 276 487 285 497 2 2 12 -1 24 -7
17 -9 22 -8 31 9 9 17 14 18 32 9 17 -9 23 -8 30 5 5 9 14 16 19 16 6 0 129
-68 272 -151z m-1703 -649 l0 -700 -3600 0 -3600 0 0 700 0 700 3600 0 3600 0
0 -700z m637 -338 c22 -17 22 -18 4 -41 -16 -21 -21 -22 -42 -11 -13 7 -25 14
-27 15 -5 5 29 55 37 55 3 0 16 -8 28 -18z m-139 -278 c5 -3 -68 -134 -74
-134 -3 0 -34 17 -69 37 l-64 37 31 55 c48 86 42 84 111 43 34 -20 64 -37 65
-38z m176 -45 c24 -11 24 -13 10 -40 -17 -34 -17 -34 -49 -13 -23 15 -23 17
-8 40 18 28 15 27 47 13z m671 -176 l64 -37 -16 -30 c-9 -17 -27 -48 -39 -68
l-24 -37 -62 36 c-35 20 -65 37 -66 39 -5 3 68 134 74 134 3 0 34 -17 69 -37z
m-981 -88 c-19 -29 -16 -28 -48 -14 -24 11 -24 13 -10 40 14 29 15 29 44 14
29 -15 30 -16 14 -40z m611 -4 c3 -5 0 -21 -6 -35 -12 -25 -13 -25 -40 -9 -27
16 -27 18 -13 45 12 24 18 27 34 18 10 -6 21 -14 25 -19z m-262 -57 l44 -27
-24 -43 c-14 -24 -29 -46 -34 -49 -9 -6 -99 42 -99 53 0 13 52 92 60 92 5 0
29 -12 53 -26z m-369 -140 c25 -14 46 -30 46 -36 0 -5 -12 -29 -26 -54 l-26
-44 -46 27 c-26 15 -49 28 -50 29 -4 3 49 104 53 104 2 0 23 -12 49 -26z m750
15 c24 -11 24 -13 10 -40 -17 -34 -21 -35 -52 -11 -21 16 -21 19 -7 40 19 26
17 25 49 11z m-8654 -69 l0 -50 -45 0 c-43 0 -45 -1 -45 -30 0 -23 -4 -30 -20
-30 -18 0 -20 7 -20 80 l0 80 65 0 65 0 0 -50z m152 -30 l0 -75 -61 -3 -61 -3
0 81 0 81 61 -3 61 -3 0 -75z m66 -3 c3 -72 1 -77 -18 -77 -18 0 -20 6 -20 81
0 71 2 80 18 77 14 -3 17 -16 20 -81z m152 3 c0 -64 -3 -80 -15 -80 -12 0 -15
13 -15 60 l0 60 -30 0 -30 0 0 -60 c0 -53 -2 -60 -20 -60 -18 0 -20 7 -20 73
0 41 3 77 7 80 3 4 33 7 65 7 l58 0 0 -80z m120 60 c0 -11 -7 -20 -15 -20 -12
0 -15 -13 -15 -60 0 -47 -3 -60 -15 -60 -12 0 -15 14 -15 65 0 53 -3 63 -15
59 -10 -4 -15 0 -15 15 0 18 6 21 45 21 38 0 45 -3 45 -20z m160 -1 c0 -19 -5
-21 -45 -17 -31 2 -45 -1 -45 -9 0 -9 16 -13 45 -13 l45 0 0 -50 0 -51 -62 3
c-74 4 -84 22 -15 26 65 4 65 30 0 34 l-46 3 1 43 c0 23 1 44 1 47 1 3 28 5
61 5 54 0 60 -2 60 -21z m7634 -122 c18 -13 18 -15 1 -40 -14 -21 -21 -25 -35
-17 -27 15 -32 27 -20 50 12 23 29 25 54 7z m-549 -53 c21 -13 22 -19 13 -40
-13 -27 -26 -30 -52 -11 -15 11 -16 17 -5 40 14 32 13 31 44 11z m761 -20 l45
-26 -27 -47 c-15 -25 -28 -48 -30 -49 -1 -2 -25 8 -53 23 l-51 28 28 48 c15
27 31 49 35 49 5 0 28 -12 53 -26z m-503 -80 c46 -25 46 -26 31 -50 -14 -21
-24 -24 -80 -24 -35 0 -64 3 -64 6 0 12 52 94 60 94 4 0 28 -12 53 -26z
m-7758 -244 l0 -155 -112 -3 -113 -3 0 161 0 161 113 -3 112 -3 0 -155z m265
0 l0 -160 -65 0 -65 0 0 45 0 45 -45 0 -45 0 0 115 0 115 110 0 110 0 0 -160z
m4890 -30 c0 -27 3 -30 29 -30 25 0 30 -4 33 -27 2 -22 9 -29 31 -31 l27 -3 0
-299 0 -299 -27 -3 c-23 -2 -29 -8 -31 -35 -3 -29 -7 -33 -33 -33 -24 0 -29
-4 -29 -25 0 -24 -3 -25 -60 -25 l-60 0 0 -30 0 -30 -1260 0 -1260 0 0 30 0
30 -60 0 c-57 0 -60 1 -60 25 0 21 -5 25 -29 25 -26 0 -30 4 -33 33 -2 27 -8
33 -30 35 l-28 3 0 299 0 299 28 3 c21 2 28 9 30 31 3 23 8 27 33 27 26 0 29
3 29 30 l0 30 1380 0 1380 0 0 -30z m-3080 -396 l0 -215 -42 3 c-43 3 -43 3
-46 46 -3 42 -3 42 -43 42 l-39 0 0 45 0 45 -45 0 -45 0 0 40 0 40 45 0 45 0
0 45 0 45 40 0 40 0 0 40 0 40 45 0 45 0 0 -216z m3500 176 l0 -40 40 0 40 0
0 -45 0 -45 45 0 45 0 0 -40 0 -40 -45 0 -45 0 0 -45 0 -45 -39 0 c-40 0 -40
0 -43 -42 -3 -43 -3 -43 -45 -46 l-43 -3 0 215 0 216 45 0 45 0 0 -40z m1210
-495 c0 -33 2 -35 35 -35 32 0 35 -2 35 -30 0 -27 3 -30 30 -30 27 0 30 3 30
30 l0 30 135 0 135 0 0 -30 c0 -27 3 -30 30 -30 27 0 30 3 30 30 0 28 3 30 35
30 33 0 35 2 35 35 l0 35 65 0 65 0 0 -35 c0 -32 2 -35 30 -35 27 0 30 -3 30
-30 l0 -30 65 0 65 0 0 30 c0 28 3 30 35 30 33 0 35 2 35 35 l0 35 65 0 65 0
0 -35 0 -35 230 0 230 0 0 -30 c0 -27 3 -30 30 -30 l30 0 0 -70 0 -70 -65 0
-65 0 0 -30 c0 -28 3 -30 35 -30 l35 0 0 -65 0 -65 -35 0 c-32 0 -35 -2 -35
-29 0 -26 4 -30 33 -33 28 -3 32 -7 35 -35 3 -29 7 -33 33 -33 l29 0 0 -100 0
-100 -30 0 c-27 0 -30 -3 -30 -30 l0 -30 -200 0 -200 0 0 30 0 30 -94 0 -95 0
-3 33 c-3 28 -7 32 -33 32 l-30 1 -3 132 -3 133 -62 -3 -62 -3 -3 -131 -3
-130 -29 4 c-29 4 -30 3 -30 -32 l0 -36 -100 0 -100 0 0 -32 0 -33 -65 3 c-64
4 -65 4 -65 33 l0 29 -65 0 -65 0 0 -30 0 -30 -60 0 c-76 0 -75 0 -75 33 l0
27 -197 0 -198 0 0 36 c0 33 -2 35 -27 32 -25 -3 -28 1 -31 30 -3 29 -6 32
-38 32 l-34 0 2 263 3 262 33 3 c28 3 32 7 32 33 0 26 3 29 30 29 26 0 30 4
30 28 0 16 3 32 7 35 3 4 78 7 165 7 l158 0 0 -35z m2030 0 c0 -32 2 -35 30
-35 27 0 30 -3 30 -30 0 -27 3 -30 30 -30 27 0 30 3 30 30 l0 30 70 0 70 0 0
-30 0 -30 65 0 65 0 0 30 0 30 95 0 95 0 0 35 0 35 200 0 200 0 0 -35 0 -35
195 0 195 0 0 -29 c0 -26 4 -30 33 -33 28 -3 32 -7 35 -35 3 -29 7 -33 33 -33
l29 0 0 -195 0 -195 35 0 35 0 0 -100 0 -100 -35 0 c-32 0 -35 -2 -35 -30 l0
-30 -100 0 -100 0 0 30 c0 30 0 30 -59 30 l-60 0 -3 -32 c-2 -18 -6 -32 -10
-30 -5 1 -35 2 -68 2 l-60 0 0 30 0 30 -230 0 -230 0 0 35 0 36 -62 -3 c-63
-3 -63 -3 -66 -35 -3 -29 -7 -33 -33 -33 -25 0 -29 -4 -29 -29 0 -29 -1 -29
-65 -33 l-65 -3 0 33 c0 30 -2 32 -35 32 -33 0 -35 2 -35 36 0 34 -1 35 -32
32 -31 -3 -33 -1 -36 30 -3 28 -7 32 -33 32 -26 0 -29 -3 -29 -30 0 -27 -3
-30 -30 -30 -28 0 -30 -3 -30 -35 l0 -35 -135 0 -135 0 0 36 c0 35 -1 36 -30
32 -28 -4 -30 -3 -30 29 0 31 -2 33 -35 33 l-35 0 2 263 3 262 33 3 c28 3 32
7 32 33 0 26 3 29 30 29 26 0 30 4 30 28 0 16 3 32 7 35 3 4 64 7 135 7 l128
0 0 -35z m-8320 -120 c0 -24 -2 -25 -70 -25 -63 0 -70 -2 -70 -20 0 -18 7 -20
70 -20 l71 0 -3 -72 -3 -73 -92 -3 -93 -3 0 26 c0 24 2 25 70 25 68 0 70 1 70
25 0 24 -2 25 -70 25 l-70 0 0 70 0 70 95 0 c95 0 95 0 95 -25z m230 0 c0 -24
-2 -25 -70 -25 l-71 0 3 -67 3 -68 68 -3 c64 -3 67 -4 67 -28 l0 -25 -92 3
-93 3 -3 118 -3 117 96 0 c95 0 95 0 95 -25z m240 -95 l0 -120 -95 0 -95 0 0
120 0 120 95 0 95 0 0 -120z m240 75 c0 -41 -2 -45 -25 -45 -20 0 -25 -5 -25
-25 0 -20 5 -25 26 -25 24 0 25 -2 22 -47 -3 -41 -6 -48 -25 -51 -21 -3 -23 0
-23 47 l0 51 -44 0 -45 0 -3 -47 c-3 -41 -6 -48 -25 -51 -23 -3 -23 -2 -23
117 l0 121 95 0 95 0 0 -45z m230 20 c0 -24 -2 -25 -70 -25 -63 0 -70 -2 -70
-20 0 -18 7 -20 70 -20 68 0 70 -1 70 -25 0 -24 -2 -25 -70 -25 -68 0 -70 -1
-70 -25 0 -24 2 -25 70 -25 68 0 70 -1 70 -25 l0 -26 -92 3 -93 3 -3 118 -3
117 96 0 c95 0 95 0 95 -25z m-960 -590 l0 -165 40 0 40 0 0 -130 0 -130 -210
0 -210 0 0 130 0 130 46 0 45 0 -3 37 c-3 36 -4 37 -43 37 l-40 1 -3 128 -3
127 171 0 170 0 0 -165z m420 80 l0 -85 85 0 85 0 0 -210 0 -210 -212 2 -213
3 -3 293 -2 292 130 0 130 0 0 -85z m590 -80 l0 -165 40 0 40 0 0 -130 0 -130
-210 0 -210 0 0 130 0 130 46 0 45 0 -3 37 c-3 36 -4 37 -43 37 l-40 1 -3 128
-3 127 171 0 170 0 0 -165z m870 -715 l0 -40 40 0 40 0 0 -75 0 -75 -40 0 -40
0 0 -40 0 -40 -110 0 -110 0 0 -110 0 -110 -80 0 -80 0 0 258 c0 142 3 262 7
265 3 4 89 7 190 7 l183 0 0 -40z m378 -172 l2 -208 150 0 150 0 0 -55 0 -55
-230 0 -230 0 0 258 c0 142 3 262 7 266 4 4 39 5 78 4 l70 -3 3 -207z m900
170 l3 -38 -150 0 -151 0 0 -75 0 -75 110 0 110 0 0 -40 0 -40 -110 0 -110 0
0 -70 0 -69 148 -3 147 -3 3 -37 3 -38 -230 0 -231 0 0 258 c0 142 3 262 7
266 4 3 106 5 227 4 l221 -3 3 -37z m522 2 l0 -40 40 0 40 0 0 -225 0 -225
-80 0 -80 0 0 110 0 110 -70 0 -70 0 0 -110 0 -110 -80 0 -80 0 0 225 0 225
40 0 40 0 0 40 0 40 150 0 150 0 0 -40z m600 0 l0 -40 41 0 40 0 -3 -37 c-3
-36 -5 -38 -40 -41 l-38 -3 0 40 0 41 -110 0 -110 0 0 -75 0 -75 110 0 110 0
0 -34 c0 -33 2 -35 38 -38 l37 -3 0 -75 0 -75 -37 -3 c-36 -3 -38 -5 -38 -38
l0 -34 -150 0 -150 0 0 34 c0 33 -2 35 -37 38 -36 3 -38 5 -41 41 l-3 37 40 0
c40 0 41 -1 41 -35 l0 -35 110 0 110 0 0 70 0 70 -110 0 -110 0 0 40 0 40 -40
0 -40 0 0 75 0 75 40 0 40 0 0 40 0 40 150 0 150 0 0 -40z m678 -2 l3 -38
-150 0 -151 0 0 -75 0 -75 110 0 110 0 0 -40 0 -40 -110 0 -110 0 0 -70 0 -69
148 -3 147 -3 3 -37 3 -38 -230 0 -231 0 0 258 c0 142 3 262 7 266 4 3 106 5
227 4 l221 -3 3 -37z m530 -185 l2 -223 35 0 35 0 0 130 0 130 40 0 40 0 0
-130 0 -130 35 0 35 0 0 225 0 225 75 0 75 0 0 -230 0 -230 -35 0 c-33 0 -35
-2 -35 -35 l0 -35 -230 0 -230 0 0 258 c0 142 3 262 7 266 4 4 39 5 78 4 l70
-3 3 -222z m892 187 l0 -40 40 0 40 0 0 -225 0 -225 -80 0 -80 0 0 110 0 110
-70 0 -70 0 0 -110 0 -110 -80 0 -80 0 0 225 0 225 40 0 40 0 0 40 0 40 150 0
150 0 0 -40z m450 0 c0 -39 -1 -40 -35 -40 l-35 0 0 -185 0 -185 35 0 c34 0
35 -1 35 -40 l0 -40 -150 0 -150 0 0 40 c0 39 1 40 35 40 l35 0 0 185 0 185
-35 0 c-34 0 -35 1 -35 40 l0 40 150 0 150 0 0 -40z m600 0 l0 -40 -70 0 -70
0 0 -225 0 -225 -80 0 -80 0 0 225 0 225 -75 0 -75 0 0 33 c0 19 3 37 7 40 3
4 105 7 225 7 l218 0 0 -40z m360 -55 c0 -24 5 -35 14 -35 12 0 15 -25 18
-135 3 -123 1 -135 -14 -135 -14 0 -18 -8 -18 -35 0 -33 -2 -35 -35 -35 -24 0
-35 5 -35 15 0 8 -9 15 -20 15 -13 0 -20 7 -20 20 0 11 -7 20 -15 20 -8 0 -15
7 -15 15 0 8 -9 15 -20 15 -11 0 -20 7 -20 14 0 11 -14 16 -47 18 l-48 3 -3
68 -3 67 51 0 c43 0 50 3 50 20 0 13 7 20 20 20 11 0 20 7 20 15 0 8 7 15 15
15 8 0 15 9 15 20 0 13 7 20 20 20 11 0 20 7 20 15 0 10 11 15 35 15 33 0 35
-2 35 -35z m140 -15 c0 -11 7 -20 15 -20 8 0 15 -7 15 -15 0 -8 9 -15 20 -15
13 0 20 -7 20 -20 0 -11 7 -20 15 -20 12 0 15 -14 15 -70 0 -56 -3 -70 -15
-70 -8 0 -15 -7 -15 -15 0 -8 -9 -15 -20 -15 -11 0 -20 -7 -20 -15 0 -8 -7
-15 -15 -15 -8 0 -15 -9 -15 -20 0 -17 -7 -20 -40 -20 -33 0 -40 3 -40 20 0
16 7 20 35 20 24 0 35 5 35 15 0 8 9 15 20 15 13 0 20 7 20 20 0 11 7 20 15
20 12 0 15 14 15 65 0 51 -3 65 -15 65 -8 0 -15 9 -15 20 0 13 -7 20 -20 20
-11 0 -20 7 -20 15 0 10 -11 15 -35 15 -28 0 -35 4 -35 20 0 17 7 20 40 20 33
0 40 -3 40 -20z m-40 -70 c0 -13 7 -20 20 -20 11 0 20 -7 20 -15 0 -8 7 -15
15 -15 10 0 15 -11 15 -35 0 -24 -5 -35 -15 -35 -8 0 -15 -7 -15 -16 0 -9 -9
-18 -20 -21 -11 -3 -20 -12 -20 -19 0 -8 -9 -14 -20 -14 -13 0 -20 7 -20 20 0
13 7 20 20 20 11 0 20 7 20 15 0 8 7 15 15 15 10 0 15 11 15 35 0 24 -5 35
-15 35 -8 0 -15 7 -15 15 0 8 -9 15 -20 15 -13 0 -20 7 -20 20 0 13 7 20 20
20 13 0 20 -7 20 -20z m-1727 -863 c3 -194 7 -549 7 -789 1 -436 1 -438 -19
-438 -19 0 -21 -6 -21 -75 0 -61 -3 -75 -16 -75 -26 0 -14 -54 14 -58 20 -3
22 -9 22 -58 l0 -54 -50 0 -50 0 0 -55 c0 -30 -4 -55 -10 -55 -5 0 -10 -7 -10
-15 0 -11 -12 -15 -50 -15 l-50 0 0 45 c0 41 -2 45 -25 45 l-25 0 0 120 0 120
-25 0 -25 0 0 853 c0 470 2 856 4 858 2 2 76 3 164 1 l159 -3 6 -352z m-553
151 c0 -112 1 -396 2 -632 2 -394 1 -429 -15 -441 -11 -8 -17 -26 -17 -54 0
-22 -4 -41 -10 -41 -6 0 -10 -27 -10 -60 0 -53 -2 -60 -20 -60 -17 0 -20 -7
-20 -40 0 -39 -1 -40 -35 -40 -35 0 -35 0 -35 -45 l0 -45 -41 0 c-32 0 -42 -4
-46 -20 -3 -13 -14 -20 -29 -20 -19 0 -24 5 -24 25 0 14 -3 25 -7 25 -5 0 -10
371 -12 825 l-4 825 162 0 161 0 0 -202z m1090 -232 c0 -387 -2 -435 -16 -440
-13 -5 -15 -19 -12 -71 3 -57 1 -65 -14 -65 -15 0 -18 -9 -18 -55 0 -48 -2
-55 -20 -55 -13 0 -20 -7 -20 -20 0 -17 -7 -20 -45 -20 -38 0 -45 3 -45 20 0
15 -7 20 -25 20 -25 0 -25 1 -25 90 0 89 0 90 -25 90 -23 0 -25 -4 -25 -45 0
-38 -3 -45 -20 -45 -20 0 -20 7 -20 515 l0 515 165 0 165 0 0 -434z m500 129
l0 -305 -25 0 c-21 0 -25 -5 -25 -30 0 -28 -3 -30 -35 -30 -32 0 -35 -2 -35
-30 0 -21 -5 -30 -16 -30 -12 0 -15 -7 -12 -30 4 -26 1 -30 -19 -30 -14 0 -23
-6 -23 -15 0 -9 -9 -15 -25 -15 -16 0 -25 6 -25 15 0 9 -9 15 -25 15 -16 0
-25 6 -25 15 0 8 -7 15 -15 15 -13 0 -15 49 -15 380 l0 380 160 0 160 0 0
-305z m-6030 -540 c0 -32 -2 -35 -30 -35 -28 0 -30 3 -30 35 0 32 2 35 30 35
28 0 30 -3 30 -35z m260 0 c0 -33 -2 -35 -35 -35 -33 0 -35 2 -35 35 0 33 2
35 35 35 33 0 35 -2 35 -35z m1750 0 c0 -32 -2 -35 -30 -35 -28 0 -30 3 -30
35 0 32 2 35 30 35 28 0 30 -3 30 -35z m260 0 c0 -33 -2 -35 -35 -35 -33 0
-35 2 -35 35 0 33 2 35 35 35 33 0 35 -2 35 -35z m-2642 -62 c3 -32 2 -33 -32
-33 -35 0 -36 1 -36 36 0 34 1 35 33 32 28 -3 32 -7 35 -35z m502 2 c0 -33 -2
-35 -35 -35 -32 0 -35 3 -35 28 0 36 6 42 42 42 25 0 28 -3 28 -35z m508 -2
c3 -32 2 -33 -32 -33 -33 0 -36 3 -36 28 0 36 8 44 40 40 20 -2 26 -9 28 -35z
m502 2 c0 -32 -2 -35 -30 -35 -28 0 -30 3 -30 35 0 32 2 35 30 35 28 0 30 -3
30 -35z m498 -2 c3 -32 2 -33 -32 -33 -35 0 -36 1 -36 36 0 34 1 35 33 32 28
-3 32 -7 35 -35z m502 2 c0 -33 -2 -35 -35 -35 -32 0 -35 3 -35 28 0 36 6 42
42 42 25 0 28 -3 28 -35z m508 -2 c3 -32 2 -33 -32 -33 -33 0 -36 3 -36 28 0
36 8 44 40 40 20 -2 26 -9 28 -35z m502 2 c0 -32 -2 -35 -30 -35 -28 0 -30 3
-30 35 0 32 2 35 30 35 28 0 30 -3 30 -35z m-3525 -130 c0 -27 -4 -30 -32 -33
-32 -3 -33 -2 -33 33 0 35 1 36 33 33 28 -3 32 -6 32 -33z m505 -1 c0 -34 -1
-35 -32 -32 -54 5 -53 68 2 68 28 0 30 -3 30 -36z m508 4 c-3 -29 -7 -33 -35
-36 -32 -3 -33 -2 -33 32 0 35 1 36 36 36 34 0 35 -1 32 -32z m502 -3 c0 -32
-2 -35 -30 -35 -28 0 -30 3 -30 35 0 32 2 35 30 35 28 0 30 -3 30 -35z m495 0
c0 -27 -4 -30 -32 -33 -32 -3 -33 -2 -33 33 0 35 1 36 33 33 28 -3 32 -6 32
-33z m505 -1 c0 -34 -1 -35 -32 -32 -54 5 -53 68 2 68 28 0 30 -3 30 -36z
m508 4 c-3 -29 -7 -33 -35 -36 -32 -3 -33 -2 -33 32 0 35 1 36 36 36 34 0 35
-1 32 -32z m502 -3 c0 -32 -2 -35 -30 -35 -28 0 -30 3 -30 35 0 32 2 35 30 35
28 0 30 -3 30 -35z"/>
<path d="M2045 9645 c-32 -32 -32 -68 1 -94 42 -33 84 -8 84 50 0 28 -6 42
-22 53 -30 21 -35 20 -63 -9z"/>
<path d="M5190 9125 l0 -155 60 0 60 0 0 155 0 155 -60 0 -60 0 0 -155z"/>
<path d="M5690 9220 l0 -60 60 0 60 0 0 60 0 60 -60 0 -60 0 0 -60z"/>
<path d="M6190 9125 l0 -155 60 0 60 0 0 155 0 155 -60 0 -60 0 0 -155z"/>
<path d="M1389 8524 c-20 -24 -16 -84 6 -100 42 -31 85 -5 85 51 0 18 -7 41
-16 49 -20 21 -58 20 -75 0z"/>
<path d="M9699 7540 l-23 -40 -41 24 -42 23 -36 -61 -36 -61 34 -21 c50 -30
50 -29 24 -70 -22 -36 -22 -37 -3 -51 54 -40 358 -206 361 -198 2 6 12 25 23
42 l20 33 32 -20 c18 -11 38 -20 45 -20 6 0 26 26 43 58 18 31 43 76 57 98
l24 42 -38 23 c-21 12 -39 24 -41 25 -2 1 7 20 20 42 12 23 20 43 18 45 -14
12 -150 87 -157 87 -5 0 -17 -16 -26 -35 -9 -19 -21 -35 -27 -35 -6 0 -53 25
-105 55 -51 30 -95 55 -98 55 -3 0 -16 -18 -28 -40z m121 -73 c0 -13 -40 -77
-48 -77 -4 0 -23 11 -43 23 l-37 22 25 43 25 42 39 -22 c21 -12 39 -26 39 -31z
m210 -119 c0 -10 -41 -78 -47 -78 -3 0 -23 10 -44 22 l-38 21 16 31 c28 56 31
58 74 33 21 -12 39 -25 39 -29z"/>
<path d="M9620 6919 c-12 -22 -20 -42 -18 -43 2 -1 19 -12 39 -23 l37 -21 22
40 c24 44 25 43 -32 73 -27 15 -28 15 -48 -26z"/>
<path d="M1380 7120 l0 -500 3400 0 3400 0 0 500 0 500 -3400 0 -3400 0 0
-500z m580 -20 l0 -360 -182 2 -183 3 -3 345 c-1 190 0 351 3 357 3 10 49 13
185 13 l180 0 0 -360z m505 0 l0 -355 -185 0 -185 0 -3 345 c-1 190 0 351 3
358 3 10 46 12 187 10 l183 -3 0 -355z m500 0 l0 -355 -179 -3 c-137 -2 -181
1 -188 10 -9 16 -11 692 -1 702 4 3 88 5 187 4 l181 -3 0 -355z m503 3 l-3
-358 -182 -3 -183 -2 0 360 0 360 185 0 185 0 -2 -357z m502 -3 l0 -360 -182
2 -183 3 -3 358 -2 357 185 0 185 0 0 -360z m500 0 l0 -360 -182 2 -183 3 -3
345 c-1 190 0 351 3 357 3 10 49 13 185 13 l180 0 0 -360z m501 0 l0 -355
-183 0 -183 0 -3 345 c-1 190 0 351 3 358 3 10 46 12 185 10 l180 -3 1 -355z
m504 0 l0 -355 -185 0 -185 0 -3 345 c-1 190 0 351 3 358 3 10 46 12 187 10
l183 -3 0 -355z m500 0 l0 -355 -182 -3 -183 -2 0 360 0 360 183 -2 182 -3 0
-355z m1845 185 c0 -8 7 -15 15 -15 8 0 15 -7 15 -15 0 -8 7 -15 15 -15 8 0
15 -7 15 -15 0 -8 7 -15 15 -15 12 0 15 -17 15 -90 0 -73 -3 -90 -15 -90 -8 0
-15 -7 -15 -15 0 -8 -7 -15 -15 -15 -8 0 -15 -7 -15 -15 0 -8 -7 -15 -15 -15
-8 0 -15 -7 -15 -15 0 -12 -17 -15 -90 -15 -73 0 -90 3 -90 15 0 8 -7 15 -15
15 -8 0 -15 7 -15 15 0 8 -7 15 -15 15 -8 0 -15 7 -15 15 0 8 -7 15 -15 15
-12 0 -15 17 -15 90 0 73 3 90 15 90 8 0 15 7 15 15 0 8 7 15 15 15 8 0 15 5
15 10 0 6 8 19 18 29 14 16 32 19 105 20 71 1 87 -2 87 -14z m-720 -171 l0
-105 -47 3 -48 3 -3 58 c-3 53 -5 57 -27 57 -23 0 -25 4 -25 45 l0 45 75 0 75
0 0 -106z m178 4 l-3 -103 -72 -3 -73 -3 0 106 0 105 75 0 76 0 -3 -102z m180
0 l-3 -103 -72 -3 -73 -3 0 106 0 105 75 0 76 0 -3 -102z"/>
<path d="M7670 7255 c0 -12 13 -15 60 -15 47 0 60 -3 60 -15 0 -8 7 -15 15
-15 8 0 15 -7 15 -15 0 -8 7 -15 15 -15 12 0 15 -13 15 -60 0 -47 -3 -60 -15
-60 -8 0 -15 -7 -15 -15 0 -8 -7 -15 -15 -15 -8 0 -15 -7 -15 -15 0 -12 -13
-15 -60 -15 -47 0 -60 3 -60 15 0 8 -7 15 -15 15 -8 0 -15 7 -15 15 0 8 -7 15
-15 15 -10 0 -15 15 -17 57 -4 81 -28 85 -28 4 0 -48 3 -61 15 -61 8 0 15 -7
15 -15 0 -8 7 -15 15 -15 8 0 15 -7 15 -15 0 -8 7 -15 15 -15 8 0 15 -7 15
-15 0 -12 13 -15 60 -15 47 0 60 3 60 15 0 8 7 15 15 15 8 0 15 7 15 15 0 8 7
15 15 15 8 0 15 7 15 15 0 8 7 15 15 15 12 0 15 13 15 55 0 40 -4 57 -15 61
-8 4 -15 12 -15 20 0 8 -4 14 -10 14 -5 0 -19 9 -30 20 -11 11 -20 25 -20 30
0 6 -27 10 -60 10 -47 0 -60 -3 -60 -15z"/>
<path d="M7640 7226 c0 -9 -7 -16 -15 -16 -8 0 -15 -7 -15 -15 0 -8 7 -15 15
-15 8 0 15 7 15 15 0 8 7 15 16 15 9 0 14 5 12 12 -6 18 -28 21 -28 4z"/>
<path d="M7700 7166 c0 -9 -7 -16 -15 -16 -10 0 -15 -10 -15 -30 0 -20 5 -30
15 -30 8 0 15 -7 15 -16 0 -11 8 -14 28 -12 15 2 27 8 27 13 0 6 -12 11 -27
13 -24 3 -28 8 -28 33 0 26 3 29 31 29 38 0 35 24 -4 28 -19 2 -27 -1 -27 -12z"/>
<path d="M6980 7175 c0 -10 10 -15 30 -15 l30 0 0 -61 c0 -44 3 -60 13 -57 8
3 13 30 15 76 l3 72 -46 0 c-33 0 -45 -4 -45 -15z"/>
<path d="M7160 7151 c0 -36 3 -40 27 -43 17 -2 29 -10 31 -20 3 -14 -3 -18
-27 -18 -21 0 -31 -5 -31 -16 0 -12 9 -14 43 -12 42 3 42 3 45 46 l3 42 -35 0
c-25 0 -36 4 -36 15 0 10 11 15 35 15 24 0 35 5 35 15 0 11 -12 15 -45 15
l-45 0 0 -39z"/>
<path d="M7340 7115 l0 -75 40 0 40 0 0 75 0 75 -40 0 -40 0 0 -75z m60 0 c0
-38 -3 -45 -20 -45 -17 0 -20 7 -20 45 0 38 3 45 20 45 17 0 20 -7 20 -45z"/>
<path d="M730 5940 c0 -5 14 -10 30 -10 17 0 30 5 30 10 0 6 -13 10 -30 10
-16 0 -30 -4 -30 -10z"/>
<path d="M908 5953 c-26 -4 -28 -8 -28 -49 0 -42 1 -44 30 -44 29 0 30 1 30
50 0 28 -1 49 -2 49 -2 -1 -15 -4 -30 -6z"/>
<path d="M880 5540 c0 -17 7 -20 46 -20 41 0 45 -2 42 -22 -2 -19 -10 -24 -45
-26 l-43 -3 0 -65 0 -64 65 0 c58 0 65 2 65 20 0 17 -7 20 -45 20 -41 0 -45 2
-45 25 0 23 4 25 45 25 l45 0 0 65 0 65 -65 0 c-58 0 -65 -2 -65 -20z"/>
<path d="M1140 5495 l0 -65 45 0 45 0 0 -45 c0 -41 2 -45 25 -45 l25 0 0 110
0 110 -25 0 c-23 0 -25 -4 -25 -45 0 -38 -3 -45 -20 -45 -17 0 -20 7 -20 45 0
41 -2 45 -25 45 -24 0 -25 -2 -25 -65z"/>
<path d="M3450 5360 c0 -27 -3 -30 -30 -30 l-30 0 0 -300 0 -300 30 0 c27 0
30 -3 30 -30 l0 -30 1380 0 1380 0 0 30 c0 27 3 30 30 30 l30 0 0 300 0 300
-30 0 c-27 0 -30 3 -30 30 l0 30 -1380 0 -1380 0 0 -30z m1290 -90 c0 -27 3
-30 30 -30 27 0 30 -3 30 -30 0 -27 3 -30 30 -30 27 0 30 -3 30 -30 0 -27 3
-30 30 -30 27 0 30 -3 30 -30 0 -27 3 -30 30 -30 28 0 30 -3 30 -36 0 -35 -1
-36 -30 -32 -27 4 -30 2 -30 -24 0 -24 -4 -28 -30 -28 -27 0 -30 -3 -30 -29 0
-25 -4 -30 -27 -33 -22 -2 -29 -9 -31 -30 -3 -24 -8 -28 -33 -28 -26 0 -29 -3
-29 -30 0 -27 -3 -30 -30 -30 l-30 0 0 270 0 270 30 0 c27 0 30 -3 30 -30z"/>
<path d="M7520 4635 c0 -33 -2 -35 -35 -35 l-35 0 0 -225 0 -225 35 0 c33 0
35 -2 35 -35 l0 -35 160 0 160 0 0 195 0 195 -95 0 -95 0 0 -30 c0 -27 3 -30
30 -30 l30 0 0 -100 0 -100 -65 0 -65 0 0 200 0 200 130 0 130 0 0 30 0 30
-160 0 -160 0 0 -35z"/>
<path d="M8370 4375 l0 -296 63 3 62 3 3 198 2 197 30 0 c28 0 30 -3 30 -35
l0 -35 64 0 65 0 3 33 c3 28 7 32 36 35 l32 3 0 -201 0 -201 63 3 62 3 3 293
2 292 -65 0 -65 0 0 -35 c0 -33 -2 -35 -35 -35 -32 0 -35 -2 -35 -30 l0 -30
-65 0 -65 0 0 30 c0 27 -3 30 -30 30 -28 0 -30 3 -30 35 l0 35 -65 0 -65 0 0
-295z"/>
<path d="M7970 4570 c0 -27 -3 -30 -30 -30 l-30 0 0 -260 0 -260 65 0 65 0 0
165 0 165 65 0 65 0 0 -165 0 -165 65 0 65 0 0 260 0 260 -35 0 c-32 0 -35 2
-35 30 l0 30 -130 0 -130 0 0 -30z m200 -95 l0 -65 -65 0 -65 0 0 65 0 65 65
0 65 0 0 -65z"/>
<path d="M8960 4310 l0 -290 190 0 190 0 0 60 0 59 -127 3 -128 3 -3 103 -3
102 101 0 100 0 0 30 0 30 -100 0 -100 0 0 65 0 65 130 0 130 0 0 30 0 30
-190 0 -190 0 0 -290z"/>
<path d="M9610 4635 c0 -33 -2 -35 -35 -35 l-35 0 0 -225 0 -225 35 0 c33 0
35 -2 35 -35 l0 -35 125 0 125 0 0 35 c0 33 2 35 35 35 l35 0 0 224 0 225 -32
3 c-29 3 -33 7 -36 36 l-3 32 -125 0 -124 0 0 -35z m190 -225 l0 -200 -65 0
-65 0 0 200 0 200 65 0 65 0 0 -200z"/>
<path d="M10452 4378 l3 -293 195 0 195 0 3 63 3 62 -136 0 -135 0 0 100 0
100 100 0 100 0 0 30 0 30 -100 0 -101 0 3 68 3 67 133 3 132 3 0 29 0 30
-200 0 -200 0 2 -292z"/>
<path d="M10000 4375 l0 -225 29 0 c26 0 30 -4 33 -32 3 -29 7 -33 36 -36 28
-3 32 -7 32 -33 l0 -29 65 0 65 0 0 30 c0 27 3 30 30 30 28 0 30 3 30 35 0 33
2 35 35 35 l35 0 0 225 0 225 -65 0 -65 0 0 -195 0 -195 -65 0 -65 0 0 195 0
195 -65 0 -65 0 0 -225z"/>
<path d="M10915 4310 l0 -290 62 0 63 0 2 163 3 162 65 0 65 0 3 -162 2 -163
95 0 95 0 0 59 0 60 -32 3 -33 3 -3 98 -3 97 -29 0 c-28 0 -30 3 -30 35 0 32
2 35 30 35 l30 0 0 65 0 65 -30 0 c-27 0 -30 3 -30 30 l0 30 -162 0 -163 0 0
-290z m265 165 l0 -65 -70 0 -70 0 0 65 0 65 70 0 70 0 0 -65z"/>
<path d="M10780 4510 c0 -28 3 -30 35 -30 32 0 35 2 35 30 0 28 -3 30 -35 30
-32 0 -35 -2 -35 -30z"/>
<path d="M10780 4310 c0 -28 3 -30 35 -30 32 0 35 2 35 30 0 28 -3 30 -35 30
-32 0 -35 -2 -35 -30z"/>
<path d="M1880 4490 l0 -70 45 0 45 0 0 70 0 70 -45 0 -45 0 0 -70z"/>
<path d="M2120 4540 c0 -17 7 -20 45 -20 38 0 45 3 45 20 0 17 -7 20 -45 20
-38 0 -45 -3 -45 -20z"/>
<path d="M1280 4035 l0 -45 40 0 40 0 0 -125 0 -125 -40 0 -40 0 0 -40 0 -40
120 0 120 0 0 40 0 40 -40 0 -40 0 0 170 0 170 -80 0 -80 0 0 -45z"/>
<path d="M1787 4073 c-4 -3 -7 -98 -7 -210 l0 -203 125 0 126 0 -3 121 -3 121
-80 2 -80 1 -3 88 -3 87 -33 0 c-18 0 -36 -3 -39 -7z m163 -288 l0 -45 -45 0
-45 0 0 45 0 45 45 0 45 0 0 -45z"/>
<path d="M2290 4035 l0 -45 40 0 40 0 0 -125 0 -125 -40 0 -40 0 0 -40 0 -40
120 0 120 0 0 40 0 40 -40 0 -40 0 0 170 0 170 -80 0 -80 0 0 -45z"/>
<path d="M3190 3165 l0 -75 110 0 110 0 0 75 0 75 -110 0 -110 0 0 -75z"/>
<path d="M4990 3165 l0 -75 70 0 70 0 0 75 0 75 -70 0 -70 0 0 -75z"/>
<path d="M7690 3165 l0 -75 70 0 70 0 0 75 0 75 -70 0 -70 0 0 -75z"/>
<path d="M1870 2890 l0 -30 -80 0 -80 0 0 -35 c0 -32 -2 -35 -30 -35 -29 0
-30 -2 -30 -43 0 -40 2 -43 28 -42 23 0 27 -4 30 -32 l3 -33 139 0 139 0 3 33
c3 28 7 32 31 32 l27 -1 0 78 0 78 -30 0 c-27 0 -30 3 -30 30 l0 30 -60 0 -60
0 0 -30z m-70 -155 c0 -32 -2 -35 -30 -35 -28 0 -30 3 -30 35 0 32 2 35 30 35
28 0 30 -3 30 -35z m160 0 c0 -32 -2 -35 -30 -35 -28 0 -30 3 -30 35 0 32 2
35 30 35 28 0 30 -3 30 -35z"/>
<path d="M1870 2450 c0 -27 3 -30 30 -30 27 0 30 3 30 30 0 27 -3 30 -30 30
-27 0 -30 -3 -30 -30z"/>
<path d="M1800 2210 l0 -80 50 0 50 0 0 80 0 80 -50 0 -50 0 0 -80z"/>
<path d="M1590 1975 c0 -21 5 -25 30 -25 25 0 30 4 30 25 0 21 -5 25 -30 25
-25 0 -30 -4 -30 -25z"/>
<path d="M1720 1975 c0 -21 5 -25 30 -25 25 0 30 4 30 25 0 21 -5 25 -30 25
-25 0 -30 -4 -30 -25z"/>
<path d="M1850 1975 c0 -21 5 -25 30 -25 25 0 30 4 30 25 0 21 -5 25 -30 25
-25 0 -30 -4 -30 -25z"/>
<path d="M1970 1975 c0 -21 5 -25 30 -25 25 0 30 4 30 25 0 21 -5 25 -30 25
-25 0 -30 -4 -30 -25z"/>
<path d="M2140 1975 c0 -20 5 -25 25 -25 20 0 25 5 25 25 0 20 -5 25 -25 25
-20 0 -25 -5 -25 -25z"/>
<path d="M2260 1975 c0 -21 5 -25 30 -25 25 0 30 4 30 25 0 21 -5 25 -30 25
-25 0 -30 -4 -30 -25z"/>
<path d="M2390 1975 c0 -21 5 -25 30 -25 25 0 30 4 30 25 0 21 -5 25 -30 25
-25 0 -30 -4 -30 -25z"/>
<path d="M2520 1975 c0 -20 5 -25 25 -25 20 0 25 5 25 25 0 20 -5 25 -25 25
-20 0 -25 -5 -25 -25z"/>
<path d="M2640 1975 c0 -21 5 -25 30 -25 25 0 30 4 30 25 0 21 -5 25 -30 25
-25 0 -30 -4 -30 -25z"/>
<path d="M2770 1975 c0 -21 5 -25 30 -25 25 0 30 4 30 25 0 21 -5 25 -30 25
-25 0 -30 -4 -30 -25z"/>
<path d="M2890 1975 c0 -21 5 -25 30 -25 25 0 30 4 30 25 0 21 -5 25 -30 25
-25 0 -30 -4 -30 -25z"/>
<path d="M3020 1975 c0 -21 5 -25 30 -25 25 0 30 4 30 25 0 21 -5 25 -30 25
-25 0 -30 -4 -30 -25z"/>
<path d="M3150 1975 c0 -20 5 -25 25 -25 20 0 25 5 25 25 0 20 -5 25 -25 25
-20 0 -25 -5 -25 -25z"/>
<path d="M3270 1975 c0 -21 5 -25 30 -25 25 0 30 4 30 25 0 21 -5 25 -30 25
-25 0 -30 -4 -30 -25z"/>
<path d="M3400 1975 c0 -21 5 -25 30 -25 25 0 30 4 30 25 0 21 -5 25 -30 25
-25 0 -30 -4 -30 -25z"/>
<path d="M3530 1975 c0 -21 5 -25 30 -25 25 0 30 4 30 25 0 21 -5 25 -30 25
-25 0 -30 -4 -30 -25z"/>
<path d="M3650 1975 c0 -21 5 -25 30 -25 25 0 30 4 30 25 0 21 -5 25 -30 25
-25 0 -30 -4 -30 -25z"/>
<path d="M3780 1975 c0 -21 5 -25 30 -25 25 0 30 4 30 25 0 21 -5 25 -30 25
-25 0 -30 -4 -30 -25z"/>
<path d="M3910 1975 c0 -21 5 -25 30 -25 25 0 30 4 30 25 0 21 -5 25 -30 25
-25 0 -30 -4 -30 -25z"/>
<path d="M4030 1975 c0 -20 5 -25 25 -25 20 0 25 5 25 25 0 20 -5 25 -25 25
-20 0 -25 -5 -25 -25z"/>
<path d="M4150 1975 c0 -20 5 -25 25 -25 20 0 25 5 25 25 0 20 -5 25 -25 25
-20 0 -25 -5 -25 -25z"/>
<path d="M4270 1975 c0 -21 5 -25 30 -25 25 0 30 4 30 25 0 21 -5 25 -30 25
-25 0 -30 -4 -30 -25z"/>
<path d="M4400 1975 c0 -21 5 -25 30 -25 25 0 30 4 30 25 0 21 -5 25 -30 25
-25 0 -30 -4 -30 -25z"/>
<path d="M4530 1975 c0 -20 5 -25 25 -25 20 0 25 5 25 25 0 20 -5 25 -25 25
-20 0 -25 -5 -25 -25z"/>
<path d="M4650 1975 c0 -21 5 -25 30 -25 25 0 30 4 30 25 0 21 -5 25 -30 25
-25 0 -30 -4 -30 -25z"/>
<path d="M4780 1975 c0 -21 5 -25 30 -25 25 0 30 4 30 25 0 21 -5 25 -30 25
-25 0 -30 -4 -30 -25z"/>
<path d="M4900 1975 c0 -21 5 -25 30 -25 25 0 30 4 30 25 0 21 -5 25 -30 25
-25 0 -30 -4 -30 -25z"/>
<path d="M5030 1975 c0 -21 5 -25 30 -25 25 0 30 4 30 25 0 21 -5 25 -30 25
-25 0 -30 -4 -30 -25z"/>
<path d="M5160 1975 c0 -20 5 -25 25 -25 20 0 25 5 25 25 0 20 -5 25 -25 25
-20 0 -25 -5 -25 -25z"/>
<path d="M5280 1975 c0 -21 5 -25 30 -25 25 0 30 4 30 25 0 21 -5 25 -30 25
-25 0 -30 -4 -30 -25z"/>
<path d="M5410 1975 c0 -21 5 -25 30 -25 25 0 30 4 30 25 0 21 -5 25 -30 25
-25 0 -30 -4 -30 -25z"/>
<path d="M5540 1975 c0 -21 5 -25 30 -25 25 0 30 4 30 25 0 21 -5 25 -30 25
-25 0 -30 -4 -30 -25z"/>
<path d="M5660 1975 c0 -21 5 -25 30 -25 25 0 30 4 30 25 0 21 -5 25 -30 25
-25 0 -30 -4 -30 -25z"/>
<path d="M5790 1975 c0 -21 5 -25 30 -25 25 0 30 4 30 25 0 21 -5 25 -30 25
-25 0 -30 -4 -30 -25z"/>
<path d="M5920 1975 c0 -21 5 -25 30 -25 25 0 30 4 30 25 0 21 -5 25 -30 25
-25 0 -30 -4 -30 -25z"/>
<path d="M6040 1975 c0 -21 5 -25 30 -25 25 0 30 4 30 25 0 21 -5 25 -30 25
-25 0 -30 -4 -30 -25z"/>
<path d="M3210 1910 c0 -27 3 -30 30 -30 27 0 30 3 30 30 0 27 -3 30 -30 30
-27 0 -30 -3 -30 -30z"/>
<path d="M5220 1910 c0 -27 3 -30 30 -30 27 0 30 3 30 30 0 27 -3 30 -30 30
-27 0 -30 -3 -30 -30z"/>
<path d="M1635 1870 c3 -5 8 -10 11 -10 2 0 4 5 4 10 0 6 -5 10 -11 10 -5 0
-7 -4 -4 -10z"/>
</g>
</svg>
